<svg xmlns="http://www.w3.org/2000/svg" width="24" height="24" viewBox="0 0 24 24"><defs><style>.a{fill:rgba(234,232,232,0);}.b{fill:#168d4f;}</style></defs><g transform="translate(-0.021)"><rect class="a" width="24" height="24" transform="translate(0.021)"/><g transform="translate(5.025 4.001)"><path class="b" d="M222.782,154.7a.383.383,0,0,0-.383.383v7.246a.383.383,0,1,0,.767,0v-7.246A.383.383,0,0,0,222.782,154.7Zm0,0" transform="translate(-213.875 -148.773)"/><path class="b" d="M104.782,154.7a.383.383,0,0,0-.383.383v7.246a.383.383,0,1,0,.767,0v-7.246A.383.383,0,0,0,104.782,154.7Zm0,0" transform="translate(-100.399 -148.773)"/><path class="b" d="M1.086,4.872v9.446a2.115,2.115,0,0,0,.562,1.459,1.888,1.888,0,0,0,1.37.592h7.254a1.888,1.888,0,0,0,1.37-.592,2.115,2.115,0,0,0,.562-1.459V4.872a1.465,1.465,0,0,0-.376-2.88H9.865V1.513A1.506,1.506,0,0,0,8.347,0h-3.4A1.506,1.506,0,0,0,3.424,1.513v.479H1.461a1.465,1.465,0,0,0-.376,2.88ZM10.272,15.6H3.018a1.214,1.214,0,0,1-1.165-1.284V4.906h9.585v9.412A1.214,1.214,0,0,1,10.272,15.6ZM4.191,1.513A.739.739,0,0,1,4.943.766h3.4a.739.739,0,0,1,.752.748v.479H4.191ZM1.461,2.759H11.828a.69.69,0,1,1,0,1.38H1.461a.69.69,0,0,1,0-1.38Zm0,0" transform="translate(0 0)"/><path class="b" d="M163.782,154.7a.383.383,0,0,0-.383.383v7.246a.383.383,0,1,0,.767,0v-7.246A.383.383,0,0,0,163.782,154.7Zm0,0" transform="translate(-157.137 -148.773)"/></g></g></svg>