<svg xmlns="http://www.w3.org/2000/svg" width="24" height="24" viewBox="0 0 24 24"><defs><style>.a{fill:rgba(234,232,232,0);}.b{fill:#168d4f;}.c{fill:none;stroke:#168d4f;}</style></defs><g transform="translate(-0.021)"><rect class="a" width="24" height="24" transform="translate(0.021)"/><path class="b" d="M16.221,3.731,12.64.15a.511.511,0,0,0-.723,0L.151,11.916a.511.511,0,0,0-.15.362V15.86a.512.512,0,0,0,.512.512H4.093a.511.511,0,0,0,.362-.15L16.221,4.455A.511.511,0,0,0,16.221,3.731ZM3.881,15.348H1.022V12.49L9.464,4.049l2.858,2.858L3.881,15.348Zm9.165-9.165L10.188,3.326l2.09-2.09,2.858,2.858Z" transform="translate(4.503 4.049)"/><line class="c" y1="7" x2="7" transform="translate(7.453 10.4)"/></g></svg>