<svg xmlns="http://www.w3.org/2000/svg" width="24" height="24" viewBox="0 0 24 24">
  <g id="ic_admin_tools" transform="translate(-17 -475)">
    <rect id="Rectangle_169" data-name="Rectangle 169" width="24" height="24" transform="translate(17 475)" fill="rgba(242,154,154,0)"/>
    <g id="Group_2115" data-name="Group 2115" transform="translate(0.723 -0.286)">
      <g id="customer-support" transform="translate(20.991 480)">
        <path id="Path_1300" data-name="Path 1300" d="M.347,1.494l1.03,1.8a.257.257,0,0,0,.161.122l.961.24,3.3,3.3.364-.364L2.811,3.243a.257.257,0,0,0-.119-.068l-.923-.232L.892,1.408,1.644.656l1.536.878.232.923a.257.257,0,0,0,.068.12L6.826,5.924,7.19,5.56l-3.3-3.3-.24-.96a.258.258,0,0,0-.122-.161L1.73.113a.257.257,0,0,0-.309.041L.391,1.184A.257.257,0,0,0,.347,1.494Zm0,0" transform="translate(-0.313 -0.077)" fill="#fff" stroke="#fff" stroke-width="0.3"/>
        <path id="Path_1302" data-name="Path 1302" d="M50.548,398.961a.257.257,0,0,0-.221-.125H48.783a.257.257,0,0,0-.221.125l-.772,1.287a.257.257,0,0,0,0,.265l.772,1.287a.257.257,0,0,0,.221.125h1.545a.258.258,0,0,0,.221-.125l.772-1.287a.257.257,0,0,0,0-.265Zm-.366,2.45H48.929l-.618-1.03.618-1.03h1.253l.618,1.03Zm0,0" transform="translate(-46.466 -388.022)" fill="#fff" stroke="#fff" stroke-width="0.3"/>
        <path id="Path_1303" data-name="Path 1303" d="M12.632,6.18a3.079,3.079,0,0,0,2.995-3.836.257.257,0,0,0-.432-.12l-1.6,1.6L12.321,3.4,11.9,2.13l1.6-1.6A.258.258,0,0,0,13.379.1a3.08,3.08,0,0,0-3.836,3,3.022,3.022,0,0,0,.063.6L3.966,9.332a3.037,3.037,0,0,0-.6-.063,3.09,3.09,0,1,0,3.09,3.09,3.03,3.03,0,0,0-.063-.6l1.35-1.35.59.59a.258.258,0,0,0,.364,0l.129-.129a.289.289,0,0,1,.409.408h0L9.1,11.4a.257.257,0,0,0,0,.364l3.071,3.071a2.078,2.078,0,1,0,2.952-2.925l-.013-.013L12.042,8.83a.257.257,0,0,0-.364,0l-.129.129a.289.289,0,0,1-.409-.408h0l.129-.129a.257.257,0,0,0,0-.364l-.59-.59,1.35-1.35A3.03,3.03,0,0,0,12.632,6.18Zm1.012,8.754a1.565,1.565,0,0,1-.548-.1l2.011-2.011a1.561,1.561,0,0,1-1.463,2.111ZM10.727,8.242A.8.8,0,0,0,11.86,9.374l2.889,2.892c.031.031.061.065.089.1l-2.2,2.2c-.034-.028-.067-.058-.1-.089L9.647,11.584a.8.8,0,0,0-1.133-1.131L8.1,10.041l2.213-2.21Zm1.04-2.59-5.841,5.84a.258.258,0,0,0-.068.245A2.592,2.592,0,1,1,3.985,9.865.26.26,0,0,0,4.23,9.8l5.839-5.84a.257.257,0,0,0,.068-.245A2.562,2.562,0,0,1,12.778.52L11.42,1.879a.257.257,0,0,0-.062.263l.515,1.545a.258.258,0,0,0,.163.163l1.545.515a.257.257,0,0,0,.263-.062L15.2,2.944c0,.049,0,.1,0,.146a2.561,2.561,0,0,1-3.2,2.495.258.258,0,0,0-.245.068h0Zm0,0" transform="translate(-0.273 0)" fill="#fff" stroke="#fff" stroke-width="0.3"/>
      </g>
    </g>
  </g>
</svg>
