<svg xmlns="http://www.w3.org/2000/svg" width="24" height="24" viewBox="0 0 24 24">
  <g id="ic_bill_payments" transform="translate(-15 -245)">
    <rect id="Rectangle_169" data-name="Rectangle 169" width="24" height="24" transform="translate(15 245)" fill="rgba(242,154,154,0)"/>
    <path id="Path_1262" data-name="Path 1262" d="M13.867,2.689l-1.8-1.8A3,3,0,0,0,9.924,0H5.7a1.693,1.693,0,0,0-.752.177L4.192.554A1,1,0,0,1,3.7.66L3.362.648V0H0V7.4H3.362V6.388h.572l.2.134a3.707,3.707,0,0,0,1.915.616v4.292H20.173V2.689ZM2.69,6.724H.672V.672H2.69Zm1.82-.761-.374-.247H3.362V1.32l.317.011a1.688,1.688,0,0,0,.813-.176L5.245.779A1.011,1.011,0,0,1,5.7.672H9.924a2.338,2.338,0,0,1,1.664.689l1.328,1.328H10.142l-.816-.816-.475.475,2.375,2.375a.674.674,0,1,1-.952.955L8.29,3.7l-.235.2a1.782,1.782,0,0,1-2.266.033l-.195-.158L5.17,4.3l.2.16a2.451,2.451,0,0,0,.685.386V6.466A3.032,3.032,0,0,1,4.509,5.963Zm4.783-.315.507.507a1.355,1.355,0,0,0,1.9,0,1.7,1.7,0,1,0,.191-.244A1.322,1.322,0,0,0,12,4.707h4.5A2.023,2.023,0,0,0,18.156,6.36v1.4A2.023,2.023,0,0,0,16.5,9.414H9.722A2.023,2.023,0,0,0,8.069,7.761V6.36A2.007,2.007,0,0,0,9.292,5.648ZM12.1,7.06a1.009,1.009,0,1,1,1.009,1.009A1.009,1.009,0,0,1,12.1,7.06Zm7.4,3.7H6.724V4.982A2.445,2.445,0,0,0,8.237,4.6l.574.574a1.342,1.342,0,0,1-1.078.546H7.4v2.69h.336A1.345,1.345,0,0,1,9.078,9.75v.336h8.069V9.75a1.345,1.345,0,0,1,1.345-1.345h.336V5.715h-.336a1.345,1.345,0,0,1-1.345-1.345V4.034H11.486l-.672-.672H19.5Zm0,0" transform="translate(17 251.258)" fill="#fff"/>
  </g>
</svg>
