<svg xmlns="http://www.w3.org/2000/svg" width="16" height="16" viewBox="0 0 16 16"><defs><style>.a{fill:#168d4f;}.b{fill:#fff;}</style></defs><rect class="a" width="16" height="16" rx="2" transform="translate(0 0)"/><g transform="translate(4.436 5.493)"><path class="b" d="M7.759,59.937,7.3,59.475a.291.291,0,0,0-.426,0L3.236,63.11,1.981,61.855a.291.291,0,0,0-.426,0l-.462.462a.291.291,0,0,0,0,.425l1.93,1.931a.291.291,0,0,0,.425,0l4.311-4.311a.292.292,0,0,0,0-.426Z" transform="translate(-1 -59.382)"/></g></svg>