<svg xmlns="http://www.w3.org/2000/svg" width="24" height="24" viewBox="0 0 24 24">
  <g id="ic_close_menu" transform="translate(-139 -74)">
    <rect id="Rectangle_527" data-name="Rectangle 527" width="24" height="24" transform="translate(139 74)" fill="rgba(37,53,75,0)"/>
    <path id="right-arrow" d="M15.478,12.21a.834.834,0,0,1,1.078.067.721.721,0,0,1,.02,1.018l-6.1,5.456H26.351a.75.75,0,0,1,0,1.5H10.5l6.07,5.456a.729.729,0,0,1,.281.743.774.774,0,0,1-.577.571.829.829,0,0,1-.8-.229L8.54,20.563a1.438,1.438,0,0,1,.014-2.131Z" transform="translate(132.925 65.957)" fill="#fff"/>
  </g>
</svg>
