<svg xmlns="http://www.w3.org/2000/svg" width="24" height="24" viewBox="0 0 24 24">
  <g id="ic_credit_and_balance" transform="translate(-17 -424)">
    <rect id="Rectangle_169" data-name="Rectangle 169" width="24" height="24" transform="translate(17 424)" fill="rgba(242,154,154,0)"/>
    <g id="wallet" transform="translate(20.997 427.602)">
      <g id="Group_2043" data-name="Group 2043" transform="translate(0.003 0)">
        <g id="Group_2042" data-name="Group 2042" transform="translate(0 0)">
          <path id="Path_1296" data-name="Path 1296" d="M15.441,8.155V5.881a1.467,1.467,0,0,0-1.353-1.458L11.977.736a1.455,1.455,0,0,0-2-.538L2.744,4.411H1.473A1.472,1.472,0,0,0,0,5.881V14.7a1.472,1.472,0,0,0,1.47,1.47h12.5a1.472,1.472,0,0,0,1.47-1.47V12.43a1.1,1.1,0,0,0,.735-1.035V9.19A1.1,1.1,0,0,0,15.441,8.155ZM13.233,4.411h-3.2l2.4-1.4ZM12.067,2.374l-3.5,2.037H7.117L11.7,1.741ZM10.351.833A.711.711,0,0,1,10.9.76a.721.721,0,0,1,.442.341h0L5.656,4.411H4.205ZM14.573,14.7a.529.529,0,0,1-.6.6H1.473c-.405,0-.488-.2-.488-.6V5.881c0-.405.2-.493.605-.493h12.5c.405,0,.485.088.485.493V8.087H12.5a2.205,2.205,0,1,0,0,4.411h2.072V14.7Zm.868-3.308a.368.368,0,0,1-.368.368H12.5a1.47,1.47,0,0,1,0-2.941h2.573a.368.368,0,0,1,.368.368Z" transform="translate(-0.003 0)" fill="#fff"/>
          <path id="Path_1297" data-name="Path 1297" d="M342.072,277.341a.735.735,0,1,0,.735.735A.736.736,0,0,0,342.072,277.341Z" transform="translate(-329.575 -267.784)" fill="#fff"/>
        </g>
      </g>
    </g>
  </g>
</svg>
