<svg xmlns="http://www.w3.org/2000/svg" width="25" height="25" viewBox="0 0 25 25"><defs><style>.a{fill:#fff;}.b,.d{fill:#1c9858;}.c,.d{stroke:none;}</style></defs><g class="a" transform="translate(-800 -3701)"><path class="c" d="M 812.4996948242188 3725.5 C 809.2901000976563 3725.5 806.2754516601563 3724.2529296875 804.0111083984375 3721.988525390625 C 801.7467651367188 3719.72412109375 800.4996948242188 3716.70947265625 800.4996948242188 3713.499755859375 C 800.4996948242188 3710.2900390625 801.7467651367188 3707.275390625 804.0111083984375 3705.01123046875 C 806.275390625 3702.7470703125 809.2900390625 3701.5 812.4996948242188 3701.5 C 815.7093505859375 3701.5 818.7239990234375 3702.7470703125 820.9883422851563 3705.01123046875 C 823.252685546875 3707.275390625 824.4996948242188 3710.2900390625 824.4996948242188 3713.499755859375 C 824.4996948242188 3716.70947265625 823.252685546875 3719.72412109375 820.9883422851563 3721.988525390625 C 818.7239990234375 3724.2529296875 815.7093505859375 3725.5 812.4996948242188 3725.5 Z"/><path class="d" d="M 812.4996948242188 3702 C 809.423583984375 3702 806.5345458984375 3703.195068359375 804.3646240234375 3705.36474609375 C 802.1947021484375 3707.53466796875 800.9996948242188 3710.423583984375 800.9996948242188 3713.499755859375 C 800.9996948242188 3716.575927734375 802.1947021484375 3719.465087890625 804.3646240234375 3721.635009765625 C 806.5345458984375 3723.804931640625 809.4236450195313 3725 812.4996948242188 3725 C 815.5757446289063 3725 818.46484375 3723.804931640625 820.634765625 3721.635009765625 C 822.8046875 3719.465087890625 823.9996948242188 3716.575927734375 823.9996948242188 3713.499755859375 C 823.9996948242188 3710.423583984375 822.8046875 3707.53466796875 820.634765625 3705.36474609375 C 818.4649047851563 3703.195068359375 815.5758056640625 3702 812.4996948242188 3702 M 812.4996948242188 3701 C 819.4121704101563 3701 824.9996948242188 3706.587158203125 824.9996948242188 3713.499755859375 C 824.9996948242188 3720.412353515625 819.4121704101563 3726 812.4996948242188 3726 C 805.5872802734375 3726 799.9996948242188 3720.412353515625 799.9996948242188 3713.499755859375 C 799.9996948242188 3706.587158203125 805.5872802734375 3701 812.4996948242188 3701 Z"/></g><g transform="translate(7.5 8)"><path class="b" d="M808.409,3709l9.091,9.091-.909.909-9.091-9.091Z" transform="translate(-807.5 -3709)"/><path class="b" d="M807.5,3718.091l9.091-9.091.909.909L808.409,3719Z" transform="translate(-807.5 -3709)"/></g></svg>