<svg xmlns="http://www.w3.org/2000/svg" width="24" height="24" viewBox="0 0 24 24">
  <g id="ic_dashboard" transform="translate(-1212 -18)">
    <rect id="Rectangle_169" data-name="Rectangle 169" width="24" height="24" transform="translate(1212 18)" fill="rgba(242,154,154,0.01)"/>
    <g id="Group_1737" data-name="Group 1737" transform="translate(1217 23)">
      <path id="home_1_" data-name="home (1)" d="M13.522,5.82h0L8.061.361a1.232,1.232,0,0,0-1.742,0L.863,5.817l-.006.006a1.231,1.231,0,0,0,.82,2.1l.038,0h.217V11.94a1.444,1.444,0,0,0,1.442,1.442H5.51a.392.392,0,0,0,.392-.392V9.84a.659.659,0,0,1,.658-.658H7.82a.659.659,0,0,1,.658.658v3.149a.392.392,0,0,0,.392.392h2.136a1.443,1.443,0,0,0,1.442-1.442V7.923h.2a1.232,1.232,0,0,0,.872-2.1Zm-.555,1.187a.445.445,0,0,1-.317.131h-.594a.392.392,0,0,0-.392.392V11.94a.658.658,0,0,1-.658.658H9.262V9.84A1.444,1.444,0,0,0,7.82,8.4H6.56A1.444,1.444,0,0,0,5.118,9.84V12.6H3.375a.659.659,0,0,1-.658-.658V7.531a.392.392,0,0,0-.392-.392h-.6a.447.447,0,0,1-.308-.764h0L6.874.915a.448.448,0,0,1,.633,0l5.458,5.457,0,0A.449.449,0,0,1,12.966,7.007Zm0,0" transform="translate(-0.499)" fill="#fff"/>
    </g>
  </g>
</svg>
