<svg xmlns="http://www.w3.org/2000/svg" width="24" height="24" viewBox="0 0 24 24"><defs><style>.a{fill:rgba(255,255,255,0);}.b{fill:#25354b;}</style></defs><g transform="translate(-1467 -530)"><rect class="a" width="24" height="24" transform="translate(1467 530)"/><g transform="translate(1470 497)"><path class="b" d="M18.675,45c-.17-.2-4.222-5-9.246-5S.352,44.793.182,45A.786.786,0,0,0,.182,46c.17.2,4.222,5,9.246,5s9.076-4.793,9.246-5A.786.786,0,0,0,18.675,45ZM9.429,49.429c-3.4,0-6.448-2.768-7.576-3.929,1.126-1.162,4.165-3.928,7.576-3.928s6.449,2.769,7.576,3.929c-1.126,1.162-4.165,3.928-7.576,3.928Z"/><path class="b" d="M62,59a3,3,0,1,0-3,3A3,3,0,0,0,62,59Zm-3,1.8A1.8,1.8,0,1,1,60.8,59,1.8,1.8,0,0,1,59,60.8Z" transform="translate(-49.5 -13.5)"/></g></g></svg>