<svg xmlns="http://www.w3.org/2000/svg" width="24" height="24" viewBox="0 0 24 24"><defs><style>.a{fill:rgba(255,255,255,0);}.b{fill:#25354b;}</style></defs><g transform="translate(-1467 -530)"><rect class="a" width="24" height="24" transform="translate(1467 530)"/><path class="b" d="M-2772.572-728.782a8.29,8.29,0,0,1-1.29-.1l1.471-1.471c3.334-.095,6.283-2.777,7.4-3.926a17.112,17.112,0,0,0-1.837-1.633l1.125-1.125a16.847,16.847,0,0,1,2.382,2.255.784.784,0,0,1,0,1.005C-2763.495-733.576-2767.545-728.782-2772.572-728.782Zm-5.36-1.69h0a17.519,17.519,0,0,1-3.886-3.307.786.786,0,0,1,0-1.005c.17-.2,4.219-5,9.247-5a9.111,9.111,0,0,1,3.3.654l-1.237,1.237a7.145,7.145,0,0,0-2.06-.319c-3.4,0-6.432,2.747-7.576,3.928a16.226,16.226,0,0,0,3.367,2.66l-1.15,1.15Z" transform="translate(4252 1276.782)"/><g transform="translate(1470 497)"><path class="b" d="M62,59a3,3,0,1,0-3,3A3,3,0,0,0,62,59Zm-3,1.8A1.8,1.8,0,1,1,60.8,59,1.8,1.8,0,0,1,59,60.8Z" transform="translate(-49.5 -13.5)"/></g><rect class="b" width="1" height="17" transform="translate(1486.011 536.49) rotate(45)"/></g></svg>