<svg xmlns="http://www.w3.org/2000/svg" width="13.239" height="16.704" viewBox="0 0 13.239 16.704"><defs><style>.a{fill:#168d4f;}</style></defs><g transform="translate(-53.013 0)"><path class="a" d="M184.9,465.044a2.523,2.523,0,0,0,4.619,0Z" transform="translate(-127.581 -449.847)"/><path class="a" d="M198.215,1.6a5.676,5.676,0,0,1,1.938.339V1.861A1.863,1.863,0,0,0,198.292,0h-.154a1.863,1.863,0,0,0-1.861,1.861v.074A5.687,5.687,0,0,1,198.215,1.6Z" transform="translate(-138.582)"/><path class="a" d="M65.749,90.476H53.517a.5.5,0,0,1-.492-.382.476.476,0,0,1,.262-.541,2.6,2.6,0,0,0,.79-1.074,12.408,12.408,0,0,0,.824-4.91,4.732,4.732,0,0,1,9.465-.019q0,.009,0,.019a12.408,12.408,0,0,0,.824,4.91,2.6,2.6,0,0,0,.79,1.074.475.475,0,0,1,.262.541A.5.5,0,0,1,65.749,90.476Zm.235-.92h0Z" transform="translate(0 -76.26)"/></g></svg>