<svg xmlns="http://www.w3.org/2000/svg" width="16" height="16" viewBox="0 0 16 16"><defs><style>.a{fill:#fff;}.b{fill:#168d4f;}</style></defs><rect class="a" width="16" height="16" rx="2" transform="translate(0 0)"/><g transform="translate(1.007 2.799)"><path class="b" d="M14.524,60.492l-.925-.925a.582.582,0,0,0-.851,0L5.473,66.841,2.962,64.33a.582.582,0,0,0-.851,0l-.925.925a.582.582,0,0,0,0,.851l3.862,3.863a.582.582,0,0,0,.851,0l8.626-8.625a.583.583,0,0,0,0-.852Z" transform="translate(-1 -59.382)"/></g></svg>