<svg xmlns="http://www.w3.org/2000/svg" width="24" height="24" viewBox="0 0 24 24">
  <g id="ic_change_password" data-name="ic_change password" transform="translate(-1023 -208)">
    <rect id="Rectangle_754" data-name="Rectangle 754" width="24" height="24" transform="translate(1023 208)" fill="rgba(136,129,129,0)"/>
    <g id="Group_4065" data-name="Group 4065" transform="translate(-150 1)">
      <path id="Union_8" data-name="Union 8" d="M19806,8305.063a9.016,9.016,0,0,1,13.395-7.87l-.6.82a8.014,8.014,0,1,0,3.76,4.4l.951-.323a9,9,0,1,1-17.5,2.975Zm6.125,4.662a.756.756,0,0,1-.756-.757v-4.726a.189.189,0,0,1,.189-.189h.566v-.756a2.646,2.646,0,1,1,5.293,0v.756h.568a.19.19,0,0,1,.189.189v4.726a.758.758,0,0,1-.758.757Zm1.891-3.4a.761.761,0,0,0,.309.612l-.119,1.069a.2.2,0,0,0,.045.149.2.2,0,0,0,.145.06h.756a.179.179,0,0,0,.139-.06.207.207,0,0,0,.051-.149l-.125-1.069a.749.749,0,0,0,.313-.612.756.756,0,0,0-1.512,0Zm-.756-3.024v.756h3.025v-.756a1.513,1.513,0,1,0-3.025,0Zm4.482-3.831,2.533-3.468,1.5,4.055Z" transform="translate(-18630.002 -8086.057)" fill="#005a9c"/>
    </g>
  </g>
</svg>
