<svg xmlns="http://www.w3.org/2000/svg" width="48" height="48" viewBox="0 0 48 48"><defs><style>.a{fill:rgba(255,255,255,0.01);}.b,.c,.d,.e,.f{fill:#b2c7e3;}.b,.c,.d,.f{stroke:#fff;}.b{stroke-width:0.7px;}.c{stroke-width:0.47px;}.f{stroke-width:0.2px;opacity:0.995;}</style></defs><g transform="translate(-988.234 -302.948)"><g transform="translate(-43.216 -58.193)"><rect class="a" width="48" height="48" transform="translate(1031.45 361.141)"/><path class="b" d="M10380.922,15175.828H10359a4.553,4.553,0,0,1-4.548-4.548v-30.591a4.553,4.553,0,0,1,4.548-4.548h23.975a4.553,4.553,0,0,1,4.548,4.548v13.331c-.083,0-.174,0-.278,0a11.935,11.935,0,0,0-2.2.205v-13.533a2.071,2.071,0,0,0-2.068-2.068H10359a2.071,2.071,0,0,0-2.068,2.068v30.591a2.071,2.071,0,0,0,2.068,2.068h19.116a11.825,11.825,0,0,0,2.8,2.478Z" transform="translate(-9320 -14772)"/><path class="c" d="M25.257,11.268H7.894A2.9,2.9,0,0,1,5,8.374V5.894A2.9,2.9,0,0,1,7.894,3H25.257a2.9,2.9,0,0,1,2.894,2.894v2.48A2.9,2.9,0,0,1,25.257,11.268ZM7.894,5.48a.414.414,0,0,0-.413.413v2.48a.414.414,0,0,0,.413.413H25.257a.414.414,0,0,0,.413-.413V5.894a.414.414,0,0,0-.413-.413Z" transform="translate(1034.411 366.102)"/><path class="d" d="M2.067,5.374V4.548H1.24a1.24,1.24,0,0,1,0-2.481h.827V1.24a1.24,1.24,0,1,1,2.48,0v.827h.827a1.24,1.24,0,1,1,0,2.481H4.547v.826a1.24,1.24,0,1,1-2.48,0Z" transform="translate(1041.065 380.677)"/><path class="d" d="M19.374,13.98H15.24a1.24,1.24,0,1,1,0-2.48h4.134a1.24,1.24,0,1,1,0,2.48Z" transform="translate(1036.297 371.658)"/><path class="d" d="M19.374,18.48H15.24a1.24,1.24,0,0,1,0-2.48h4.134a1.24,1.24,0,0,1,0,2.48Z" transform="translate(1036.297 374.599)"/><path class="d" d="M19.374,20.98H15.24a1.24,1.24,0,0,1,0-2.48h4.134a1.24,1.24,0,1,1,0,2.48Z" transform="translate(1036.297 376.233)"/><path class="d" d="M4.5,6.252l-1.19-1.19-1.19,1.19A1.241,1.241,0,0,1,.363,4.5l1.19-1.19L.363,2.118A1.241,1.241,0,0,1,2.118.363l1.19,1.19L4.5.363A1.241,1.241,0,0,1,6.252,2.118l-1.19,1.19L6.252,4.5A1.241,1.241,0,1,1,4.5,6.252Z" transform="translate(1041.066 390.598)"/><path class="e" d="M10366.27,15159.783a11.823,11.823,0,1,1,8.361-3.462A11.834,11.834,0,0,1,10366.27,15159.783Zm0-21.641a9.821,9.821,0,1,0,6.946,2.875A9.831,9.831,0,0,0,10366.27,15138.143Z" transform="translate(-9299.026 -14754.123)"/><path class="f" d="M188.565,113.793v-.867a.788.788,0,0,0-1.575,0v.867a3.263,3.263,0,0,0-2.757,3.071,2.953,2.953,0,0,0,2.216,2.821l2.249.6a1.424,1.424,0,0,1,.9.7c.865,1.654-1.99,3.254-4.019,1.225a.788.788,0,0,0-1.114,1.114,4.685,4.685,0,0,0,2.526,1.345v.855a.788.788,0,0,0,1.575,0v-.866a3.1,3.1,0,0,0,2.427-4.4,3,3,0,0,0-1.886-1.49l-2.249-.6a1.359,1.359,0,0,1-1.049-1.3,1.808,1.808,0,0,1,1.969-1.575,2.086,2.086,0,0,1,1.735.834.788.788,0,0,0,1.306-.881A3.57,3.57,0,0,0,188.565,113.793Z" transform="translate(879.744 274.894)"/></g></g></svg>