<svg xmlns="http://www.w3.org/2000/svg" width="16" height="16" viewBox="0 0 16 16"><defs><style>.a{fill:#005a9c;}</style></defs><circle class="a" cx="0.83" cy="0.83" r="0.83" transform="translate(7.17 10.972)"/><path class="a" d="M8,0a8,8,0,1,0,8,8A8,8,0,0,0,8,0ZM8,14.75A6.75,6.75,0,1,1,14.75,8,6.746,6.746,0,0,1,8,14.75Z"/><path class="a" d="M178.656,128.5A2.659,2.659,0,0,0,176,131.156a.664.664,0,0,0,1.328,0,1.328,1.328,0,1,1,1.328,1.328.664.664,0,0,0-.664.664v1.66a.664.664,0,0,0,1.328,0v-1.08a2.656,2.656,0,0,0-.664-5.228Z" transform="translate(-170.656 -124.659)"/></svg>