<svg xmlns="http://www.w3.org/2000/svg" width="24" height="24" viewBox="0 0 24 24"><defs><style>.a{fill:rgba(234,232,232,0);}.b{fill:#fff;}</style></defs><g transform="translate(-0.021)"><rect class="a" width="24" height="24" transform="translate(0.021)"/><g transform="translate(4.021 4)"><path class="b" d="M13.686,4.04h-.438V2.349A2.352,2.352,0,0,0,10.9,0H5.136A2.352,2.352,0,0,0,2.787,2.349V4.04H2.349A2.352,2.352,0,0,0,0,6.389v3.758A2.352,2.352,0,0,0,2.349,12.5h.438v2.13A1.411,1.411,0,0,0,4.2,16.035h7.642a1.411,1.411,0,0,0,1.409-1.409V12.5h.438a2.352,2.352,0,0,0,2.349-2.349V6.389A2.352,2.352,0,0,0,13.686,4.04ZM3.727,2.349A1.411,1.411,0,0,1,5.136.94H10.9a1.411,1.411,0,0,1,1.409,1.409V4.04H3.727Zm8.581,12.277a.47.47,0,0,1-.47.47H4.2a.47.47,0,0,1-.47-.47V9.991h8.581ZM15.1,10.147a1.411,1.411,0,0,1-1.409,1.409h-.438V9.991h.282a.47.47,0,1,0,0-.94H2.505a.47.47,0,1,0,0,.94h.282v1.566H2.349A1.411,1.411,0,0,1,.94,10.147V6.389A1.411,1.411,0,0,1,2.349,4.98H13.686A1.411,1.411,0,0,1,15.1,6.389Z"/><path class="b" d="M203.975,353H201.47a.47.47,0,1,0,0,.94h2.505a.47.47,0,1,0,0-.94Z" transform="translate(-194.705 -341.945)"/><path class="b" d="M203.975,417H201.47a.47.47,0,1,0,0,.94h2.505a.47.47,0,1,0,0-.94Z" transform="translate(-194.705 -403.94)"/><path class="b" d="M66.973,193h-1.5a.47.47,0,0,0,0,.94h1.5a.47.47,0,0,0,0-.94Z" transform="translate(-62.964 -186.956)"/></g></g></svg>