<svg xmlns="http://www.w3.org/2000/svg" width="24" height="24" viewBox="0 0 24 24"><defs><style>.a{fill:rgba(234,232,232,0);}.b{fill:#25354b;}</style></defs><g transform="translate(0.096)"><rect class="a" width="24" height="24" transform="translate(-0.096)"/><path class="b" d="M16.16.606a7.882,7.882,0,0,0-5.5,2.215V.606a.606.606,0,1,0-1.213,0V4.244a.606.606,0,0,0,.415.575L13.5,6.032a.607.607,0,0,0,.383-1.152L11.2,3.986a6.642,6.642,0,1,1-1.658,3.39.606.606,0,1,0-1.194-.213l0,.011a7.973,7.973,0,0,0-.109,1.314A7.893,7.893,0,1,0,16.16.606Z" transform="translate(-3.804 4.051)"/></g></svg>