<svg xmlns="http://www.w3.org/2000/svg" width="48" height="48" viewBox="0 0 48 48"><defs><style>.a{fill:rgba(255,255,255,0.01);}.b{fill:#b2c7e3;stroke:#fff;stroke-width:0.7px;}</style></defs><g transform="translate(-348 -380)"><rect class="a" width="48" height="48" transform="translate(348 380)"/><g transform="translate(349 383)"><path class="b" d="M192.331,115.513v-.9a1.472,1.472,0,1,0-2.945,0v.9a6.1,6.1,0,0,0-5.153,5.741,5.521,5.521,0,0,0,4.142,5.274l4.2,1.13a2.662,2.662,0,0,1,1.681,1.307c1.618,3.091-3.72,6.083-7.512,2.291a1.472,1.472,0,1,0-2.082,2.082,8.758,8.758,0,0,0,4.722,2.514v.88a1.472,1.472,0,0,0,2.945,0v-.9c4.037-.816,6.348-4.769,4.537-8.231a5.613,5.613,0,0,0-3.525-2.786l-4.2-1.13a2.541,2.541,0,0,1-1.962-2.43c0-1.624,1.651-2.945,3.681-2.945a3.9,3.9,0,0,1,3.243,1.56,1.472,1.472,0,0,0,2.441-1.647A6.673,6.673,0,0,0,192.331,115.513Z" transform="translate(-167.309 -104.431)"/><path class="b" d="M43.207,247.225a1.347,1.347,0,0,0-1.5,1.178A18.514,18.514,0,0,1,5.5,251.13l1.609.884a1.347,1.347,0,0,0,1.3-2.362l-4.134-2.27a1.347,1.347,0,0,0-1.828.531L.168,252.041a1.347,1.347,0,0,0,2.36,1.3l.529-.96a21.209,21.209,0,0,0,41.329-3.659A1.347,1.347,0,0,0,43.207,247.225Zm0,0" transform="translate(0 -225.015)"/><path class="b" d="M71.108,11.507a1.347,1.347,0,0,0-1.77.7l-.424.984a21.348,21.348,0,0,0-6.533-8.661A21,21,0,0,0,49.276,0,21.2,21.2,0,0,0,28.531,16.793a1.347,1.347,0,0,0,1.04,1.6,1.413,1.413,0,0,0,1.6-1.04A18.508,18.508,0,0,1,49.276,2.7,18.334,18.334,0,0,1,60.716,6.65a18.63,18.63,0,0,1,5.9,8.054l-1.705-.734a1.347,1.347,0,1,0-1.065,2.475l4.333,1.864a1.273,1.273,0,0,0,1.769-.7l1.866-4.328A1.347,1.347,0,0,0,71.108,11.507Zm0,0" transform="translate(-25.942 -0.004)"/></g></g></svg>