<svg xmlns="http://www.w3.org/2000/svg" width="24" height="24" viewBox="0 0 24 24"><defs><style>.a{opacity:0.385;}.b{fill:rgba(255,255,255,0);}.c{fill:#25354b;}</style></defs><g class="a" transform="translate(-841.212 -533.528)"><g transform="translate(847.099 538.528)"><rect class="b" width="24" height="24" transform="translate(-5.887 -5)"/><g transform="translate(-0.886 -0.001)"><g transform="translate(0)"><path class="c" d="M7.159,13.975H1.79a.6.6,0,0,1-.6-.6V2.64a.6.6,0,0,1,.6-.6H7.159a.6.6,0,0,0,0-1.193H1.79A1.792,1.792,0,0,0,0,2.64V13.379a1.792,1.792,0,0,0,1.79,1.79H7.159a.6.6,0,1,0,0-1.193Z" transform="translate(0 -0.85)"/><g transform="translate(4.773 2.983)"><path class="c" d="M179.516,110.916l-3.627-3.58a.6.6,0,0,0-.838.85l2.592,2.558H170.7a.6.6,0,0,0,0,1.193h6.946l-2.592,2.558a.6.6,0,1,0,.838.85l3.627-3.58a.6.6,0,0,0,0-.85Z" transform="translate(-170.1 -107.165)"/></g></g></g></g></g></svg>