<svg xmlns="http://www.w3.org/2000/svg" width="24" height="24" viewBox="0 0 24 24">
  <g id="ic_contact_us" transform="translate(-15 -429)">
    <rect id="Rectangle_169" data-name="Rectangle 169" width="24" height="24" transform="translate(15 429)" fill="rgba(242,154,154,0)"/>
    <path id="Path_1285" data-name="Path 1285" d="M13.123,9.365a8.1,8.1,0,0,1-2.544-.405A1.12,1.12,0,0,0,9.448,9.2l-1.6,1.211A8.866,8.866,0,0,1,3.858,6.424L5.033,4.862a1.153,1.153,0,0,0,.284-1.168A8.113,8.113,0,0,1,4.91,1.145,1.146,1.146,0,0,0,3.765,0H1.145A1.146,1.146,0,0,0,0,1.145,13.138,13.138,0,0,0,13.123,14.268a1.146,1.146,0,0,0,1.145-1.145V10.51A1.146,1.146,0,0,0,13.123,9.365Zm.352,3.758a.352.352,0,0,1-.352.352A12.344,12.344,0,0,1,.793,1.145.352.352,0,0,1,1.145.793h2.62a.352.352,0,0,1,.352.352,8.888,8.888,0,0,0,.445,2.791.394.394,0,0,1-.125.406l-1.362,1.8a.4.4,0,0,0-.037.418A9.839,9.839,0,0,0,7.7,11.229a.4.4,0,0,0,.42-.036l1.846-1.4a.35.35,0,0,1,.359-.084,8.9,8.9,0,0,0,2.8.447.352.352,0,0,1,.352.352Z" transform="translate(19 434.479)" fill="#fff"/>
  </g>
</svg>
