<svg xmlns="http://www.w3.org/2000/svg" width="24" height="24" viewBox="0 0 24 24"><defs><style>.a{fill:rgba(255,255,255,0);}.b{fill:#203b5e;}</style></defs><g transform="translate(-1212 -18)"><rect class="a" width="24" height="24" transform="translate(1212 18)"/><path class="b" d="M66.56,13.48a2.632,2.632,0,0,1-.8-1.089,12.6,12.6,0,0,1-.834-4.979c0-.006,0-.013,0-.019A4.806,4.806,0,0,0,62.1,3.033V1.887A1.887,1.887,0,0,0,60.214,0h-.156a1.887,1.887,0,0,0-1.884,1.887V3.033a4.806,4.806,0,0,0-2.829,4.378,12.6,12.6,0,0,1-.834,4.979,2.632,2.632,0,0,1-.8,1.089.482.482,0,0,0-.265.549.5.5,0,0,0,.5.388h3.637a2.555,2.555,0,0,0,5.11,0h3.637a.5.5,0,0,0,.5-.388A.482.482,0,0,0,66.56,13.48ZM59.166,1.887a.893.893,0,0,1,.891-.893h.156a.893.893,0,0,1,.891.893v.824a4.806,4.806,0,0,0-1.939,0V1.887Zm.969,14.057a1.566,1.566,0,0,1-1.562-1.528H61.7A1.566,1.566,0,0,1,60.136,15.944Zm2-2.522H55.074a5.2,5.2,0,0,0,.26-.456,12.564,12.564,0,0,0,1-5.554,3.8,3.8,0,1,1,7.6,0c0,.006,0,.012,0,.018a12.539,12.539,0,0,0,1,5.534,5.206,5.206,0,0,0,.26.456Z" transform="translate(1163.566 22)"/></g></svg>