<svg xmlns="http://www.w3.org/2000/svg" width="24" height="24" viewBox="0 0 24 24">
  <g id="ic_receive_money" transform="translate(-15 -245)">
    <rect id="Rectangle_169" data-name="Rectangle 169" width="24" height="24" transform="translate(15 245)" fill="rgba(242,154,154,0)"/>
    <g id="hand" transform="translate(17.317 250.618)">
      <path id="Path_1251" data-name="Path 1251" d="M18.705,234.018a1.392,1.392,0,0,0-1.384-.977l-.134.006a1.558,1.558,0,0,0-1.041.455l-2.074,2.052a1.454,1.454,0,0,0-1.217-.659H9.929a6,6,0,0,1-1.6-.213,3.933,3.933,0,0,0-3.664.767,5.3,5.3,0,0,0-.974,1.05,1.315,1.315,0,0,0-1.7.169L.1,238.632a.368.368,0,0,0,.007.517l3.91,3.889a.332.332,0,0,0,.52,0,.368.368,0,0,0,0-.52L.885,238.881l1.639-1.7a.581.581,0,0,1,.823-.014L6.27,240a.581.581,0,0,1,.011.822l-1.617,1.787c-.527-.538-1.028-.14-.881,0l.464.639.18.111h.254a.367.367,0,0,0,.263-.111l1.864-1.912a1.318,1.318,0,0,0,.283-1.4l.657-.076a8,8,0,0,1,.921-.054H13.12c.068,0,.137,0,.205-.009l.427-.036a2.468,2.468,0,0,0,1.677-.862l3-3.529A1.43,1.43,0,0,0,18.705,234.018Zm-.838.88-3,3.529a1.735,1.735,0,0,1-1.177.605l-.427.036c-.048,0-.1.006-.144.006H8.669a8.76,8.76,0,0,0-1.006.058l-1.063.124-2.352-2.268a4.551,4.551,0,0,1,.881-.967,3.185,3.185,0,0,1,3-.629,6.732,6.732,0,0,0,1.8.239h2.925a.724.724,0,0,1,.518.22.716.716,0,0,1,.187.36.362.362,0,0,0,.012.1.718.718,0,0,1-.157.491l-.011.014a.716.716,0,0,1-.561.269H10.3a.368.368,0,1,0,0,.735h2.547a1.447,1.447,0,0,0,1.135-.544l.011-.014a1.45,1.45,0,0,0,.319-.905l2.356-2.332a.827.827,0,0,1,.553-.242l.134-.005a.654.654,0,0,1,.652.46A.7.7,0,0,1,17.868,234.9Zm0,0" transform="translate(0 -227.582)" fill="#fff"/>
      <path id="Path_1255" data-name="Path 1255" d="M238.11,6.364a3.891,3.891,0,0,0,0-7.782,3.851,3.851,0,0,0-2.4.829,3.891,3.891,0,0,0,2.4,6.953ZM235.37.905a3.176,3.176,0,0,1,.793-.916,3.124,3.124,0,0,1,1.947-.672A3.154,3.154,0,1,1,235.37.905Zm0,0" transform="translate(-227.349 0)" fill="#fff"/>
      <path id="Path_1256" data-name="Path 1256" d="M322.672,52.242a.985.985,0,0,1-.471.119c-.248,0-.465-.292-.465-.625a.368.368,0,0,0-.735,0,1.341,1.341,0,0,0,.91,1.32.367.367,0,0,0,.734-.016,1.226,1.226,0,0,0,.989-1.224,1.379,1.379,0,0,0-1.28-1.28c-.006,0-.545-.048-.545-.393a.544.544,0,0,1,.545-.545.5.5,0,0,1,.324.159c.047.047.052.052.052.25a.368.368,0,0,0,.735,0,.949.949,0,0,0-.267-.769,1.293,1.293,0,0,0-.554-.332.367.367,0,0,0-.734.021v.024a1.219,1.219,0,0,0-.837,1.193c0,.842.876,1.127,1.278,1.128.11.009.548.2.548.545A.445.445,0,0,1,322.672,52.242Zm0,0" transform="translate(-311.585 -48.511)" fill="#fff"/>
    </g>
  </g>
</svg>
