<svg xmlns="http://www.w3.org/2000/svg" width="24" height="24" viewBox="0 0 24 24">
  <g id="ic_sendmoney" transform="translate(-15 -245)">
    <rect id="Rectangle_169" data-name="Rectangle 169" width="24" height="24" transform="translate(15 245)" fill="rgba(242,154,154,0)"/>
    <g id="Group_1738" data-name="Group 1738">
      <path id="Subtraction_8" data-name="Subtraction 8" d="M16894.105,13802.121h-14.818a.284.284,0,0,1-.289-.284v-2.667h.572v2.379h14.252v-7.979h-14.252v2.6H16879v-2.883a.284.284,0,0,1,.289-.284h14.818a.284.284,0,0,1,.283.284v8.552A.284.284,0,0,1,16894.105,13802.121Zm-3.137-1.141h-8.549a.284.284,0,0,1-.283-.284,1.711,1.711,0,0,0-1.3-1.661.5.5,0,0,0,.16-.365v-.178a2.27,2.27,0,0,1,1.688,1.92h8.018a2.28,2.28,0,0,1,1.977-1.976v-1.747a2.276,2.276,0,0,1-1.977-1.976h-8.018a2.27,2.27,0,0,1-1.689,1.92.5.5,0,0,0-.5-.466h-.209a.289.289,0,0,1,.137-.034,1.71,1.71,0,0,0,1.709-1.708.284.284,0,0,1,.283-.284h8.553a.284.284,0,0,1,.283.284,1.71,1.71,0,0,0,1.709,1.708.285.285,0,0,1,.279.284v2.281a.284.284,0,0,1-.283.284,1.717,1.717,0,0,0-1.709,1.713A.284.284,0,0,1,16890.969,13800.98Zm-4.275-1.425a1.995,1.995,0,1,1,2-2A2,2,0,0,1,16886.693,13799.556Zm0-3.422a1.425,1.425,0,1,0,1.43,1.425A1.426,1.426,0,0,0,16886.693,13796.134Z" transform="translate(-16859 -13540.168)" fill="#fff"/>
      <g id="Rectangle_433" data-name="Rectangle 433" transform="translate(15 253)" fill="#fff" stroke="#fff" stroke-width="1">
        <rect width="3" height="1" rx="0.5" stroke="none"/>
        <rect x="0.5" y="0.5" width="2" fill="none"/>
      </g>
      <g id="Rectangle_435" data-name="Rectangle 435" transform="translate(17 255)" fill="#fff" stroke="#fff" stroke-width="1">
        <rect width="3" height="1" rx="0.5" stroke="none"/>
        <rect x="0.5" y="0.5" width="2" fill="none"/>
      </g>
      <g id="Rectangle_436" data-name="Rectangle 436" transform="translate(15 257)" fill="#fff" stroke="#fff" stroke-width="1">
        <rect width="3" height="1" rx="0.5" stroke="none"/>
        <rect x="0.5" y="0.5" width="2" fill="none"/>
      </g>
      <rect id="Rectangle_437" data-name="Rectangle 437" width="3" height="1" rx="0.5" transform="translate(19 257)" fill="#fff"/>
      <g id="Rectangle_434" data-name="Rectangle 434" transform="translate(19 253)" fill="#fff" stroke="#fff" stroke-width="1">
        <rect width="1" height="1" rx="0.5" stroke="none"/>
        <rect x="0.5" y="0.5" fill="none"/>
      </g>
    </g>
  </g>
</svg>
