<svg xmlns="http://www.w3.org/2000/svg" width="16" height="16" viewBox="0 0 16 16"><defs><style>.a{fill:rgba(255,255,255,0);}.b{fill:#36b573;}.c{fill:#fff;}</style></defs><rect class="a" width="16" height="16" rx="2" transform="translate(0 0)"/><circle class="b" cx="8" cy="8" r="8"/><path class="c" d="M9.68,60.095,9.086,59.5a.373.373,0,0,0-.546,0L3.871,64.169,2.259,62.557a.374.374,0,0,0-.546,0l-.594.594a.373.373,0,0,0,0,.546L3.6,66.177a.373.373,0,0,0,.546,0L9.68,60.641a.374.374,0,0,0,0-.547Z" transform="translate(2.463 -54.654)"/></svg>