<svg xmlns="http://www.w3.org/2000/svg" width="24" height="24" viewBox="0 0 24 24">
  <g id="ic_top_ups" transform="translate(-15 -402)">
    <g id="ic_bill_payments" transform="translate(-2 157)">
      <rect id="Rectangle_169" data-name="Rectangle 169" width="24" height="24" transform="translate(17 245)" fill="rgba(242,154,154,0)"/>
    </g>
    <path id="Path_839" data-name="Path 839" d="M605.535,3878.179V3872.1a.434.434,0,1,0-.868,0v6.078a.434.434,0,1,0,.868,0Z" transform="translate(-572.631 -3466.668)" fill="#fff"/>
    <path id="Path_839-2" data-name="Path 839" d="M606.512,3876.333h-6.078a.434.434,0,0,0,0,.868h6.078a.434.434,0,1,0,0-.868Z" transform="translate(-571.004 -3468.295)" fill="#fff"/>
    <path id="Path_1263" data-name="Path 1263" d="M187.4,114.067v-.353a.576.576,0,0,0-1.151,0v.353a2.384,2.384,0,0,0-2.015,2.244,2.158,2.158,0,0,0,1.619,2.062l1.643.442a1.041,1.041,0,0,1,.657.511c.632,1.208-1.454,2.378-2.937.9a.576.576,0,0,0-.814.814,3.424,3.424,0,0,0,1.846.983v.344a.576.576,0,1,0,1.151,0v-.352a2.266,2.266,0,0,0,1.774-3.218,2.195,2.195,0,0,0-1.378-1.089l-1.643-.442a.993.993,0,0,1-.767-.95,1.321,1.321,0,0,1,1.439-1.151,1.524,1.524,0,0,1,1.268.61.576.576,0,0,0,.954-.644A2.609,2.609,0,0,0,187.4,114.067Z" transform="translate(-159.621 296.214)" fill="#fff"/>
    <path id="Subtraction_7" data-name="Subtraction 7" d="M16432.5,13444a8.5,8.5,0,0,1,0-17,8.414,8.414,0,0,1,1.279.1v1.012a7.481,7.481,0,1,0,6.07,5.891h1.02a8.614,8.614,0,0,1,.133,1.5A8.509,8.509,0,0,1,16432.5,13444Z" transform="translate(-16405.004 -13021.439)" fill="#fff"/>
  </g>
</svg>
