<svg xmlns="http://www.w3.org/2000/svg" width="24" height="24" viewBox="0 0 24 24"><defs><style>.a{opacity:0.46;}.b{fill:rgba(242,154,154,0);}.c{fill:#fff;}</style></defs><g class="a" transform="translate(-17 -425)"><rect class="b" width="24" height="24" transform="translate(17 425)"/><g transform="translate(22.304 428.893)"><g transform="translate(-1.011 -0.516)"><g transform="translate(0)"><path class="c" d="M7.564,0a7.564,7.564,0,1,0,7.564,7.564A7.573,7.573,0,0,0,7.564,0Zm0,14.128A6.869,6.869,0,0,1,1.006,7.564,6.733,6.733,0,0,1,7.564,1.152a6.676,6.676,0,0,1,6.5,6.412A6.812,6.812,0,0,1,7.564,14.128Z"/><path class="c" d="M323.988,55.142a1.759,1.759,0,0,1-.842.213c-.443,0-.831-.522-.831-1.117a.657.657,0,0,0-1.314,0,2.4,2.4,0,0,0,1.626,2.359.656.656,0,0,0,1.311-.028,2.192,2.192,0,0,0,1.768-2.188,2.464,2.464,0,0,0-2.288-2.288c-.01,0-.974-.086-.974-.7a.972.972,0,0,1,.974-.974.89.89,0,0,1,.58.284c.084.084.093.093.093.447a.657.657,0,0,0,1.314,0,1.7,1.7,0,0,0-.478-1.374,2.311,2.311,0,0,0-.99-.593.657.657,0,0,0-1.312.038v.043a2.179,2.179,0,0,0-1.5,2.132c0,1.505,1.565,2.014,2.284,2.016.2.016.979.362.979.974A.794.794,0,0,1,323.988,55.142Zm0,0" transform="translate(-315.582 -45.158)"/><g transform="translate(11.777 11.777)"><path class="c" d="M354.468,353.7l-2.637-2.522a.475.475,0,0,0-.65,0,.426.426,0,0,0,0,.622l2.637,2.522a.475.475,0,0,0,.65,0A.426.426,0,0,0,354.468,353.7Z" transform="translate(-350.869 -350.707)"/></g></g></g></g></g></svg>