<svg xmlns="http://www.w3.org/2000/svg" width="24" height="24" viewBox="0 0 24 24">
  <g id="ic_usermanagement" transform="translate(13395 10646)">
    <rect id="Rectangle_169" data-name="Rectangle 169" width="24" height="24" transform="translate(-13395 -10646)" fill="rgba(255,255,255,0)"/>
    <g id="user_managment" data-name="user managment" transform="translate(0 -21.478)">
      <g id="Group_3485" data-name="Group 3485" transform="translate(0 1.478)">
        <path id="Path_1298" data-name="Path 1298" d="M90.554,7.043a3.409,3.409,0,0,0,2.491-1.032,3.407,3.407,0,0,0,1.032-2.49,3.407,3.407,0,0,0-1.032-2.49,3.523,3.523,0,0,0-4.981,0,3.407,3.407,0,0,0-1.032,2.49,3.407,3.407,0,0,0,1.032,2.49,3.41,3.41,0,0,0,2.49,1.032ZM88.669,1.638a2.665,2.665,0,0,1,3.769,0,2.546,2.546,0,0,1,.781,1.884,2.546,2.546,0,0,1-.781,1.884,2.665,2.665,0,0,1-3.769,0,2.545,2.545,0,0,1-.781-1.884,2.545,2.545,0,0,1,.781-1.884Zm0,0" transform="translate(-13476.546 -10621)" fill="#aab0b9"/>
        <path id="Path_1299" data-name="Path 1299" d="M12.171,251.5a8.7,8.7,0,0,0-.118-.924,7.278,7.278,0,0,0-.227-.929,4.589,4.589,0,0,0-.382-.866,3.265,3.265,0,0,0-.576-.75,2.539,2.539,0,0,0-.827-.52,2.86,2.86,0,0,0-1.056-.191,1.072,1.072,0,0,0-.572.243c-.172.112-.372.241-.6.384a3.416,3.416,0,0,1-.772.34,3,3,0,0,1-1.888,0,3.407,3.407,0,0,1-.771-.34l-.6-.385a1.071,1.071,0,0,0-.572-.243,2.856,2.856,0,0,0-1.056.191,2.537,2.537,0,0,0-.827.52,3.266,3.266,0,0,0-.576.75,4.6,4.6,0,0,0-.382.866,7.3,7.3,0,0,0-.227.929,8.638,8.638,0,0,0-.118.924c-.019.279-.029.57-.029.863A2.428,2.428,0,0,0,.721,254.2a2.6,2.6,0,0,0,1.858.678H9.621a2.6,2.6,0,0,0,1.858-.678,2.427,2.427,0,0,0,.721-1.837C12.2,252.066,12.19,251.775,12.171,251.5Zm-1.283,2.08a1.748,1.748,0,0,1-1.268.442H2.58a1.748,1.748,0,0,1-1.268-.442,1.585,1.585,0,0,1-.455-1.216c0-.274.009-.544.027-.8a7.793,7.793,0,0,1,.107-.832,6.435,6.435,0,0,1,.2-.819,3.742,3.742,0,0,1,.311-.7,2.421,2.421,0,0,1,.423-.555,1.684,1.684,0,0,1,.55-.342,1.973,1.973,0,0,1,.675-.13c.03.016.083.046.17.1l.6.389a4.245,4.245,0,0,0,.969.433,3.853,3.853,0,0,0,2.415,0,4.249,4.249,0,0,0,.969-.433c.23-.147.427-.274.6-.389a1.475,1.475,0,0,1,.17-.1,1.974,1.974,0,0,1,.675.13,1.687,1.687,0,0,1,.55.342,2.415,2.415,0,0,1,.423.555,3.731,3.731,0,0,1,.311.7,6.42,6.42,0,0,1,.2.819,7.856,7.856,0,0,1,.107.832h0c.018.259.027.529.027.8a1.585,1.585,0,0,1-.448,1.213Zm0,0" transform="translate(-13392 -10861.253)" fill="#aab0b9"/>
      </g>
      <g id="Group_3486" data-name="Group 3486" transform="translate(0 1.478)">
        <path id="Path_1298-2" data-name="Path 1298" d="M89.539,5.015a2.426,2.426,0,0,0,1.773-.735,2.426,2.426,0,0,0,.734-1.773A2.426,2.426,0,0,0,91.311.734a2.507,2.507,0,0,0-3.546,0,2.426,2.426,0,0,0-.735,1.773,2.426,2.426,0,0,0,.735,1.773,2.427,2.427,0,0,0,1.774.735ZM88.2,1.166a1.9,1.9,0,0,1,2.683,0,1.813,1.813,0,0,1,.556,1.341,1.813,1.813,0,0,1-.556,1.341,1.9,1.9,0,0,1-2.683,0,1.812,1.812,0,0,1-.556-1.341A1.812,1.812,0,0,1,88.2,1.166Zm0,0" transform="translate(-13468.114 -10621)" fill="#aab0b9"/>
        <path id="Subtraction_1" data-name="Subtraction 1" d="M6.069,5.381H3.4c-.015-.19-.039-.4-.07-.61H6.069a1.245,1.245,0,0,0,.9-.314A1.13,1.13,0,0,0,7.3,3.592c0-.2-.007-.393-.02-.573a5.678,5.678,0,0,0-.08-.592,4.683,4.683,0,0,0-.142-.583,2.61,2.61,0,0,0-.222-.5,1.706,1.706,0,0,0-.3-.4A1.2,1.2,0,0,0,6.143.7a1.417,1.417,0,0,0-.48-.09c-.032.017-.073.042-.121.073L5.112.96a3.049,3.049,0,0,1-.69.308,2.78,2.78,0,0,1-.86.139A2.778,2.778,0,0,1,2.7,1.269,3.049,3.049,0,0,1,2.01.961c-.159-.1-.3-.2-.43-.277A.782.782,0,0,0,1.464.61,1.409,1.409,0,0,0,.983.7,1.341,1.341,0,0,0,.748.82,3.275,3.275,0,0,0,0,.689,2.112,2.112,0,0,1,.17.506,1.79,1.79,0,0,1,.758.136,2.033,2.033,0,0,1,1.51,0a.767.767,0,0,1,.407.173L1.928.18l.414.267a2.463,2.463,0,0,0,.549.242A2.2,2.2,0,0,0,3.563.8,2.2,2.2,0,0,0,4.235.689,2.476,2.476,0,0,0,4.784.447c.159-.1.3-.194.424-.274A.767.767,0,0,1,5.616,0a2.033,2.033,0,0,1,.752.136,1.819,1.819,0,0,1,.589.37,2.308,2.308,0,0,1,.41.534,3.21,3.21,0,0,1,.272.617,5.1,5.1,0,0,1,.162.661,6.2,6.2,0,0,1,.084.658c.014.2.021.4.021.615A1.727,1.727,0,0,1,7.392,4.9a1.848,1.848,0,0,1-1.323.481Z" transform="translate(-13382.073 -10615.972)" fill="#aab0b9"/>
      </g>
    </g>
  </g>
</svg>
