<svg xmlns="http://www.w3.org/2000/svg" width="24" height="24" viewBox="0 0 24 24">
  <g id="ic_user" transform="translate(-10 -9)">
    <rect id="Rectangle_169" data-name="Rectangle 169" width="24" height="24" transform="translate(10 9)" fill="rgba(242,154,154,0)"/>
    <path id="Path_1281" data-name="Path 1281" d="M90.254,6.446A3.119,3.119,0,0,0,92.533,5.5a3.119,3.119,0,0,0,.944-2.279A3.119,3.119,0,0,0,92.533.944a3.222,3.222,0,0,0-4.558,0,3.119,3.119,0,0,0-.944,2.279A3.119,3.119,0,0,0,87.975,5.5,3.12,3.12,0,0,0,90.254,6.446ZM88.53,1.5a2.438,2.438,0,0,1,3.449,0,2.33,2.33,0,0,1,.715,1.724,2.33,2.33,0,0,1-.715,1.724,2.438,2.438,0,0,1-3.449,0,2.33,2.33,0,0,1-.715-1.724A2.33,2.33,0,0,1,88.53,1.5Zm0,0" transform="translate(-68.701 14)" fill="#fff"/>
    <path id="Path_1282" data-name="Path 1282" d="M11.137,251.142a7.96,7.96,0,0,0-.108-.846,6.662,6.662,0,0,0-.208-.85,4.2,4.2,0,0,0-.35-.793,2.988,2.988,0,0,0-.527-.687,2.323,2.323,0,0,0-.757-.476,2.616,2.616,0,0,0-.966-.175.981.981,0,0,0-.524.222c-.157.1-.341.221-.546.352a3.128,3.128,0,0,1-.706.311,2.742,2.742,0,0,1-1.727,0,3.116,3.116,0,0,1-.706-.311c-.2-.13-.387-.248-.546-.352a.98.98,0,0,0-.524-.222,2.613,2.613,0,0,0-.966.175,2.321,2.321,0,0,0-.757.476,2.989,2.989,0,0,0-.527.687,4.207,4.207,0,0,0-.349.793,6.678,6.678,0,0,0-.208.85,7.906,7.906,0,0,0-.108.846c-.018.256-.027.521-.027.79a2.222,2.222,0,0,0,.66,1.681,2.375,2.375,0,0,0,1.7.62H8.8a2.376,2.376,0,0,0,1.7-.62,2.221,2.221,0,0,0,.66-1.681C11.164,251.663,11.155,251.4,11.137,251.142Zm-1.174,1.9a1.6,1.6,0,0,1-1.16.4H2.36a1.6,1.6,0,0,1-1.16-.4,1.451,1.451,0,0,1-.416-1.113c0-.251.008-.5.025-.736a7.131,7.131,0,0,1,.1-.762,5.889,5.889,0,0,1,.183-.749,3.426,3.426,0,0,1,.284-.645,2.216,2.216,0,0,1,.387-.508,1.542,1.542,0,0,1,.5-.313,1.8,1.8,0,0,1,.618-.119c.027.015.076.042.156.094.161.1.347.225.552.356a3.885,3.885,0,0,0,.886.4,3.525,3.525,0,0,0,2.21,0,3.889,3.889,0,0,0,.887-.4c.21-.134.391-.251.552-.356a1.654,1.654,0,0,1,.156-.094,1.806,1.806,0,0,1,.618.119,1.543,1.543,0,0,1,.5.313,2.21,2.21,0,0,1,.387.508,3.413,3.413,0,0,1,.285.645,5.874,5.874,0,0,1,.183.749,7.19,7.19,0,0,1,.1.762h0c.017.237.025.484.025.736a1.451,1.451,0,0,1-.415,1.117Zm0,0" transform="translate(16.056 -226.853)" fill="#fff"/>
  </g>
</svg>
