<svg xmlns="http://www.w3.org/2000/svg" width="24" height="24" viewBox="0 0 24 24"><defs><style>.a{fill:rgba(255,255,255,0);}.b{fill:#aab0b9;}</style></defs><g transform="translate(13395 10646)"><rect class="a" width="24" height="24" transform="translate(-13395 -10646)"/><path class="b" d="M91.035,8.006a3.875,3.875,0,0,0,2.831-1.173A3.873,3.873,0,0,0,95.04,4a3.873,3.873,0,0,0-1.173-2.83,4,4,0,0,0-5.662,0A3.873,3.873,0,0,0,87.031,4,3.873,3.873,0,0,0,88.2,6.833,3.876,3.876,0,0,0,91.035,8.006ZM88.893,1.861a3.029,3.029,0,0,1,4.284,0A2.894,2.894,0,0,1,94.065,4a2.893,2.893,0,0,1-.888,2.142,3.029,3.029,0,0,1-4.284,0A2.893,2.893,0,0,1,88.005,4,2.893,2.893,0,0,1,88.893,1.861Zm0,0" transform="translate(-13474.206 -10642)"/><path class="b" d="M13.834,252.068a9.885,9.885,0,0,0-.135-1.05,8.272,8.272,0,0,0-.258-1.056,5.217,5.217,0,0,0-.434-.985,3.712,3.712,0,0,0-.655-.853,2.886,2.886,0,0,0-.94-.591,3.25,3.25,0,0,0-1.2-.217,1.219,1.219,0,0,0-.651.276c-.2.127-.423.274-.678.437a3.883,3.883,0,0,1-.877.386,3.406,3.406,0,0,1-2.146,0,3.871,3.871,0,0,1-.876-.386c-.252-.161-.481-.308-.678-.437a1.217,1.217,0,0,0-.65-.276,3.246,3.246,0,0,0-1.2.217,2.884,2.884,0,0,0-.94.591,3.713,3.713,0,0,0-.654.853,5.226,5.226,0,0,0-.434.985,8.291,8.291,0,0,0-.258,1.056,9.818,9.818,0,0,0-.135,1.051c-.022.317-.033.648-.033.981a2.76,2.76,0,0,0,.82,2.088,2.951,2.951,0,0,0,2.112.77h8a2.951,2.951,0,0,0,2.112-.77,2.759,2.759,0,0,0,.82-2.088C13.868,252.715,13.857,252.385,13.834,252.068Zm-1.458,2.364a1.987,1.987,0,0,1-1.441.5h-8a1.987,1.987,0,0,1-1.441-.5,1.8,1.8,0,0,1-.517-1.382c0-.311.01-.619.031-.914a8.858,8.858,0,0,1,.122-.946,7.314,7.314,0,0,1,.227-.931,4.254,4.254,0,0,1,.353-.8,2.752,2.752,0,0,1,.481-.63,1.914,1.914,0,0,1,.626-.389,2.243,2.243,0,0,1,.767-.148c.034.018.095.053.193.117.2.13.431.279.686.442a4.824,4.824,0,0,0,1.1.492,4.38,4.38,0,0,0,2.745,0,4.831,4.831,0,0,0,1.1-.492c.261-.167.485-.311.686-.442.1-.064.159-.1.193-.117a2.245,2.245,0,0,1,.767.148,1.918,1.918,0,0,1,.625.389,2.745,2.745,0,0,1,.481.63,4.24,4.24,0,0,1,.353.8,7.3,7.3,0,0,1,.227.931,8.93,8.93,0,0,1,.122.946h0c.021.294.031.6.031.914A1.8,1.8,0,0,1,12.377,254.432Zm0,0" transform="translate(-13390 -10881.287)"/></g></svg>